<?xml version="1.0" encoding="UTF-8" standalone="no"?>
<!-- Created with Inkscape (http://www.inkscape.org/) -->

<svg
   xmlns:dc="http://purl.org/dc/elements/1.1/"
   xmlns:cc="http://creativecommons.org/ns#"
   xmlns:rdf="http://www.w3.org/1999/02/22-rdf-syntax-ns#"
   xmlns:svg="http://www.w3.org/2000/svg"
   xmlns="http://www.w3.org/2000/svg"
   xmlns:sodipodi="http://sodipodi.sourceforge.net/DTD/sodipodi-0.dtd"
   xmlns:inkscape="http://www.inkscape.org/namespaces/inkscape"
   width="2995.0364"
   height="2200.3589"
   viewBox="0 0 792.43668 582.17831"
   version="1.1"
   id="svg8"
   inkscape:version="0.92.4 (5da689c313, 2019-01-14)"
   sodipodi:docname="logo2.svg">
  <defs
     id="defs2" />
  <sodipodi:namedview
     id="base"
     pagecolor="#ffffff"
     bordercolor="#666666"
     borderopacity="1.0"
     inkscape:pageopacity="0.0"
     inkscape:pageshadow="2"
     inkscape:zoom="0.175"
     inkscape:cx="1568.0546"
     inkscape:cy="1002.7582"
     inkscape:document-units="mm"
     inkscape:current-layer="layer2"
     showgrid="false"
     units="px"
     fit-margin-top="0"
     fit-margin-left="0"
     fit-margin-right="0"
     fit-margin-bottom="0"
     inkscape:window-width="1920"
     inkscape:window-height="1017"
     inkscape:window-x="-8"
     inkscape:window-y="-8"
     inkscape:window-maximized="1" />
  <metadata
     id="metadata5">
    <rdf:RDF>
      <cc:Work
         rdf:about="">
        <dc:format>image/svg+xml</dc:format>
        <dc:type
           rdf:resource="http://purl.org/dc/dcmitype/StillImage" />
        <dc:title></dc:title>
      </cc:Work>
    </rdf:RDF>
  </metadata>
  <g
     inkscape:groupmode="layer"
     id="layer2"
     inkscape:label="Layer 2"
     transform="translate(-5.4947422,-277.31146)">
    <g
       id="g902"
       transform="matrix(1.0479744,0,0,1.1191852,-11.349764,-192.11445)">
      <path
         inkscape:connector-curvature="0"
         id="path852"
         d="M 129.26786,926.19292 C 98.273808,916.36553 61.988093,896.71077 55.940475,864.20483 49.892857,831.69886 42.333333,785.58577 80.130951,756.85959 117.92857,728.13338 161.01786,706.21077 193.52381,707.72268 c 32.50595,1.51191 49.89285,10.58333 55.94047,31.75 6.04762,21.16666 9.82738,35.52976 -2.26786,68.79166 -12.09523,33.26191 -18.8988,74.83928 -41.57737,91.47024 -22.67858,16.63095 -55.18453,21.92261 -61.9881,23.43452 -6.80357,1.51191 -14.36309,3.02382 -14.36309,3.02382 z"
         style="fill:#776258;fill-opacity:1;stroke:#776258;stroke-width:0.26458332px;stroke-linecap:butt;stroke-linejoin:miter;stroke-opacity:1" />
      <path
         inkscape:connector-curvature="0"
         id="path835"
         d="M 441.58637,554.71557 C 427.97922,547.15602 295.68755,551.69175 238.99112,574.37033 182.29469,597.0489 57.562541,664.32866 35.63993,647.69769 13.71731,631.06675 6.9137394,623.50724 33.37207,597.80484 c 26.458331,-25.70236 113.39285,-86.17858 191.25595,-115.6607 77.86311,-29.48215 151.1905,-50.64882 234.34526,-57.45239 83.15478,-6.80358 204.10707,-6.04761 240.39288,-2.26785 36.28569,3.77976 75.59521,16.63094 72.57139,44.60118 -3.02379,27.97024 -39.30949,60.47618 -69.5476,69.54761 -30.2381,9.07145 -51.40479,4.53573 -60.47619,30.99406 -9.0714,26.45833 -43.0893,114.90476 -128.51191,188.23214 -85.42263,73.32736 -216.20239,194.27976 -303.13693,182.94046 -86.93452,-11.33925 -132.291659,-17.38689 -63.5,-35.52976 68.79167,-18.14285 116.41667,-38.55358 154.97027,-77.10713 38.55355,-38.55354 107.34521,-106.5893 120.95236,-145.14286 13.60715,-38.55358 24.19049,-80.88691 21.92264,-102.80952 -2.26788,-21.92261 -3.02382,-23.43451 -3.02382,-23.43451 z"
         style="display:inline;fill:#4cb1ff;fill-opacity:1;stroke:#4cb1ff;stroke-width:0.26458332px;stroke-linecap:butt;stroke-linejoin:miter;stroke-opacity:1" />
    </g>
  </g>
  <g
     inkscape:groupmode="layer"
     id="layer4"
     inkscape:label="Layer 3"
     transform="translate(-5.4947422,-277.31146)" />
</svg>
